# xmcd CD database file
#
# Track frame offsets:
#	150
#	35240
#	69666
#	97327
#	124936
#	149370
#	176612
#	210963
#	235871
#
# Disc length: 3522 seconds
#
# Revision: 0
# Processed by: cddbd v1.5.2PL0 Copyright (c) Steve Scherf et al.
# Submitted via: CDex 1.51
#
DISCID=880dc009
DTITLE=Ligia Piro and Juan Cruz de Urquiza - Strange Fruit
DYEAR=2010
DGENRE=Jazz
TTITLE0=Good Bye Pork Pie Hat
TTITLE1=Will Be Together Again
TTITLE2=Softly As In A Morning Sunrise
TTITLE3=Strange Fruit
TTITLE4=Message In A Bottle
TTITLE5=Change The World
TTITLE6=Debajo Del Sauce Solo
TTITLE7=Noche De Ronda
TTITLE8=After You've Gone
EXTD=YEAR: 2010
EXTT0=
EXTT1=
EXTT2=
EXTT3=
EXTT4=
EXTT5=
EXTT6=
EXTT7=
EXTT8=
PLAYORDER=
